<mxfile host="app.diagrams.net" modified="2024-08-05T06:51:47.881Z" agent="Mozilla/5.0 (Windows NT 10.0; Win64; x64) AppleWebKit/537.36 (KHTML, like Gecko) Chrome/127.0.0.0 Safari/537.36" etag="eA0P7hPHtcliVfszESg0" version="24.6.5" type="device">
  <diagram name="Page-1" id="tdR9m2q-O5Sf_NTJKMTm">
    <mxGraphModel dx="882" dy="617" grid="1" gridSize="10" guides="1" tooltips="1" connect="1" arrows="1" fold="1" page="1" pageScale="1" pageWidth="850" pageHeight="1100" math="0" shadow="0">
      <root>
        <mxCell id="0" />
        <mxCell id="1" parent="0" />
        <mxCell id="ABNfxPYadI90aGK8dBzP-1" value="" style="rounded=0;whiteSpace=wrap;html=1;" vertex="1" parent="1">
          <mxGeometry x="130" y="90" width="740" height="460" as="geometry" />
        </mxCell>
        <mxCell id="ABNfxPYadI90aGK8dBzP-2" value="GridPane sudokuGrid" style="whiteSpace=wrap;html=1;aspect=fixed;" vertex="1" parent="1">
          <mxGeometry x="170" y="110" width="350" height="350" as="geometry" />
        </mxCell>
        <mxCell id="ABNfxPYadI90aGK8dBzP-3" value="HBox" style="rounded=0;whiteSpace=wrap;html=1;" vertex="1" parent="1">
          <mxGeometry x="170" y="480" width="670" height="60" as="geometry" />
        </mxCell>
        <mxCell id="ABNfxPYadI90aGK8dBzP-4" value="Button stepButton" style="rounded=0;whiteSpace=wrap;html=1;" vertex="1" parent="1">
          <mxGeometry x="190" y="490" width="120" height="40" as="geometry" />
        </mxCell>
        <mxCell id="ABNfxPYadI90aGK8dBzP-5" value="Button solveButton" style="rounded=0;whiteSpace=wrap;html=1;" vertex="1" parent="1">
          <mxGeometry x="340" y="490" width="120" height="40" as="geometry" />
        </mxCell>
        <mxCell id="ABNfxPYadI90aGK8dBzP-6" value="Button resetButton" style="rounded=0;whiteSpace=wrap;html=1;" vertex="1" parent="1">
          <mxGeometry x="550" y="490" width="120" height="40" as="geometry" />
        </mxCell>
        <mxCell id="ABNfxPYadI90aGK8dBzP-7" value="ScrollPane" style="rounded=0;whiteSpace=wrap;html=1;" vertex="1" parent="1">
          <mxGeometry x="540" y="110" width="290" height="350" as="geometry" />
        </mxCell>
        <mxCell id="ABNfxPYadI90aGK8dBzP-8" value="VBox messageBoard" style="rounded=0;whiteSpace=wrap;html=1;" vertex="1" parent="1">
          <mxGeometry x="550" y="300" width="270" height="150" as="geometry" />
        </mxCell>
      </root>
    </mxGraphModel>
  </diagram>
</mxfile>
